<?xml version="1.0" encoding="UTF-8"?>
<svg width="20px" height="11px" viewBox="0 0 20 11" version="1.1" xmlns="http://www.w3.org/2000/svg" xmlns:xlink="http://www.w3.org/1999/xlink">
    <g id="Web" stroke="none" stroke-width="1" fill="none" fill-rule="evenodd">
        <g id="WebHD" transform="translate(-544.000000, -908.000000)" fill="#FFFFFF" fill-rule="nonzero">
            <g id="noun_1191146_cc" transform="translate(544.000000, 908.000000)">
                <path d="M19.1425,9.175 C19.487678,9.175 19.7675,8.89517797 19.7675,8.55 L19.7675,3.47 C19.7710484,3.43174878 19.7710484,3.39325122 19.7675,3.355 C19.7675,3.3425 19.7675,3.33 19.7675,3.3175 C19.7547909,3.29411457 19.7405951,3.27156829 19.725,3.25 L19.7075,3.21 C19.6971295,3.18766001 19.6854423,3.16595519 19.6725,3.145 L19.6525,3.1125 C19.6343504,3.08685981 19.6142936,3.06262446 19.5925,3.04 C19.5662901,3.01420163 19.5378455,2.99077667 19.5075,2.97 L19.4775,2.9525 L19.41,2.915 L19.37,2.8975 L19.335,2.885 L10.185,0.055 C10.0652451,0.0183246527 9.93725494,0.0183246527 9.8175,0.055 L0.675,2.8725 C0.412528497,2.95304434 0.233354165,3.19544822 0.233354165,3.47 C0.233354165,3.74455178 0.412528497,3.98695566 0.675,4.0675 L4.0375,5.105 C4.0375,5.105 4.0375,5.105 4.0375,5.1175 L4.0375,8.25 C4.04157761,8.44985439 4.1410056,8.63570109 4.305,8.75 C7.73128583,11.1246038 12.2712142,11.1246038 15.6975,8.75 C15.8614944,8.63570109 15.9609224,8.44985439 15.965,8.25 L15.965,5.1175 C15.965,5.1175 15.965,5.1175 15.965,5.105 L18.52,4.3175 L18.52,8.55 C18.5199972,8.89420401 18.7982987,9.17362318 19.1425,9.175 Z M14.715,7.925 C11.8411474,9.76263385 8.16135257,9.76263385 5.2875,7.925 L5.2875,5.5 L9.8175,6.8975 C9.93723191,6.93432882 10.0652681,6.93432882 10.185,6.8975 L14.7125,5.5 L14.715,7.925 Z M10,5.635 L2.98,3.47 L10,1.305 L17.02,3.47 L10,5.635 Z" id="Shape"></path>
            </g>
        </g>
    </g>
</svg>
