<?xml version="1.0" encoding="UTF-8"?>
<svg width="19px" height="20px" viewBox="0 0 19 20" version="1.1" xmlns="http://www.w3.org/2000/svg" xmlns:xlink="http://www.w3.org/1999/xlink">
    <g id="Web" stroke="none" stroke-width="1" fill="none" fill-rule="evenodd">
        <g id="WebHD" transform="translate(-1063.000000, -62.000000)" fill="#FFFFFF" fill-rule="nonzero">
            <g id="noun_1708893_cc" transform="translate(1063.000000, 62.000000)">
                <path d="M13.679802,5.51366337 C13.0053465,5.17623762 11.9411881,4.91663366 10.7730693,4.91663366 C7.01009901,4.91663366 4.41485149,8.05683168 4.41485149,11.5605941 C4.41485149,13.8184158 5.71247525,15.1160396 7.29544554,15.1160396 C8.6970297,15.1160396 9.96851485,14.5192079 11.0067327,12.9619802 C11.0326733,14.4673267 11.9411881,15.1160396 13.1607921,15.1160396 C15.6522772,15.1160396 18.2217822,12.7285149 18.2217822,8.16079208 C18.2217822,3.33366337 14.8219802,0.167326733 10.0467327,0.167326733 C3.94772277,0.167326733 0.0289108911,4.99465347 0.0289108911,11.0156436 C0.0289108911,16.569505 3.89584158,19.969505 8.38574257,19.969505 C10.2023762,19.969505 11.7853465,19.709703 13.2390099,18.8792079 L12.6677228,17.0366337 C11.6035644,17.6075248 10.2023762,17.8930693 8.61920792,17.8930693 C4.93386139,17.8930693 1.84554455,15.4015842 1.84554455,10.859802 C1.84554455,5.35782178 5.5049505,2.19168317 9.78693069,2.19168317 C13.8356436,2.19168317 16.4308911,4.50138614 16.4308911,8.31643564 C16.4308911,11.6384158 14.7180198,13.1435644 13.5241584,13.1178218 C12.7455446,13.0918812 12.4083168,12.6247525 12.6936634,11.0156436 L13.679802,5.51366337 Z M11.2663366,9.45841584 C10.9031683,11.4829703 9.44970297,13.1178218 7.89247525,13.1178218 C6.75069307,13.1178218 6.23148515,12.3908911 6.23148515,11.2752475 C6.23148515,8.73168317 7.97029703,6.8370297 10.2540594,6.8370297 C10.8770297,6.8370297 11.3960396,6.91485149 11.7334653,7.04475248 L11.2663366,9.45841584 Z" id="Shape"></path>
            </g>
        </g>
    </g>
</svg>
