<?xml version="1.0" encoding="UTF-8"?>
<svg width="22px" height="20px" viewBox="0 0 22 20" version="1.1" xmlns="http://www.w3.org/2000/svg" xmlns:xlink="http://www.w3.org/1999/xlink">
    <g id="Web" stroke="none" stroke-width="1" fill="none" fill-rule="evenodd">
        <g id="WebHD" transform="translate(-928.000000, -903.000000)" fill="#FFFFFF" fill-rule="nonzero">
            <g id="Octicons-mark-github" transform="translate(928.000000, 903.000000)">
                <path d="M10.6666667,0 C4.77604167,0 0,4.5907307 0,10.2527988 C0,14.7834545 3.056,18.6257509 7.29491667,19.9811829 C7.828125,20.0750601 8.02279167,19.7584048 8.02279167,19.4880673 C8.02279167,19.2440027 8.01302083,18.4355134 8.0078125,17.5794448 C5.04166667,18.1989581 4.41470833,16.3704355 4.41470833,16.3704355 C3.92904167,15.1864576 3.23045833,14.8710639 3.23045833,14.8710639 C2.2610625,14.2352702 3.304,14.2477858 3.304,14.2477858 C4.37495833,14.3191148 4.93879167,15.3041044 4.93879167,15.3041044 C5.890625,16.8710605 7.4361875,16.4179949 8.04295833,16.1551668 C8.13991667,15.4943419 8.41595833,15.0412763 8.72004167,14.7859576 C6.35220833,14.5268942 3.86133333,13.6470359 3.86133333,9.71837164 C3.86133333,8.59821332 4.27735417,7.68459283 4.95833333,6.96681682 C4.84960417,6.70649185 4.48241667,5.66330962 5.06379167,4.25218809 C5.06379167,4.25218809 5.95833333,3.97684438 7.997375,5.30350047 C8.847625,5.07509534 9.75975,4.96245473 10.6666458,4.95869003 C11.5728958,4.96245473 12.4856458,5.07633689 13.3372292,5.30474202 C15.3723958,3.97684438 16.2682292,4.25342964 16.2682292,4.25342964 C16.8515625,5.66581275 16.484375,6.7077334 16.375,6.96681682 C17.0585833,7.68459283 17.4713542,8.59823335 17.4713542,9.71837164 C17.4713542,13.6570484 14.9765625,14.5243711 12.6002708,14.7784482 C12.9843958,15.0963451 13.3242292,15.7196231 13.3242292,16.6758168 C13.3242292,18.0462875 13.3098958,19.1514071 13.3098958,19.4893289 C13.3098958,19.7621695 13.5038958,20.0813079 14.0442708,19.9811829 C18.2799583,18.6232478 21.3333333,14.7809514 21.3333333,10.2527988 C21.3333333,4.5907307 16.5572917,0 10.6666667,0 Z" id="Shape"></path>
            </g>
        </g>
    </g>
</svg>
