<?xml version="1.0" encoding="UTF-8"?>
<svg width="16px" height="20px" viewBox="0 0 16 20" version="1.1" xmlns="http://www.w3.org/2000/svg" xmlns:xlink="http://www.w3.org/1999/xlink">
    <!-- Generator: Sketch 50 (54983) - http://www.bohemiancoding.com/sketch -->
    <title>noun_1712146_cc</title>
    <desc>Created with Sketch.</desc>
    <defs></defs>
    <g id="Web" stroke="none" stroke-width="1" fill="none" fill-rule="evenodd">
        <g id="WebHD" transform="translate(-708.000000, -62.000000)" fill="#FFFFFF" fill-rule="nonzero">
            <g id="noun_1712146_cc" transform="translate(708.000000, 62.000000)">
                <path d="M8.23520495,0.588268235 C4.08227513,0.588268235 0.705423647,3.96215285 0.705423647,8.11279875 C0.705423647,10.606197 1.853662,12.3886286 3.29821926,14.0126733 C4.74277661,15.6367179 6.4864496,17.1498648 7.86230088,19.2122658 C7.94543749,19.3369253 8.08536616,19.4117976 8.23520495,19.4117976 C8.38504375,19.4117976 8.52497242,19.3369253 8.60810903,19.2122658 C9.98396031,17.1498648 11.7276333,15.6367179 13.1721906,14.0126733 C14.616748,12.3886286 15.7649863,10.606197 15.7649863,8.11279875 C15.7649863,3.96215285 12.3881348,0.588268235 8.23520495,0.588268235 Z M8.23520495,1.48462917 C11.9040282,1.48462917 14.8686254,4.44690484 14.8686254,8.11279875 C14.8686254,10.3371094 13.8913679,11.8570328 12.5034247,13.4174358 C11.2258415,14.8537646 9.62138231,16.3349741 8.23520495,18.2563865 C6.84902759,16.3349741 5.24456842,14.8537646 3.96698518,13.4174358 C2.57904208,11.8570328 1.60178449,10.3371094 1.60178449,8.11279875 C1.60178449,4.44690484 4.56638174,1.48462917 8.23520495,1.48462917 Z M8.23520495,4.17371196 C6.26032462,4.17371196 4.64976123,5.78427535 4.64976123,7.75915568 C4.64976123,9.7340378 6.26032462,11.3446012 8.23520495,11.3446012 C10.2100853,11.3446012 11.8206487,9.7340378 11.8206487,7.75915568 C11.8206487,5.78427535 10.2100853,4.17371196 8.23520495,4.17371196 Z M8.23520495,5.07007289 C9.72565598,5.07007289 10.9242877,6.26870465 10.9242877,7.75915568 C10.9242877,9.2496085 9.72565598,10.4482403 8.23520495,10.4482403 C6.74475393,10.4482403 5.54612216,9.2496085 5.54612216,7.75915568 C5.54612216,6.26870465 6.74475393,5.07007289 8.23520495,5.07007289 Z" id="Shape"></path>
            </g>
        </g>
    </g>
</svg>