<?xml version="1.0" encoding="UTF-8"?>
<svg width="159px" height="28px" viewBox="0 0 159 28" version="1.1" xmlns="http://www.w3.org/2000/svg" xmlns:xlink="http://www.w3.org/1999/xlink">
    <g id="Web" stroke="none" stroke-width="1" fill="none" fill-rule="evenodd">
        <g id="WebHD" transform="translate(-161.000000, -58.000000)" fill="#FFAFB4">
            <path d="M165.397093,84.858908 L161,84.858908 L173.971424,58.2198546 L178.405159,58.2198546 L165.397093,84.858908 Z M177.663854,84.858908 L173.266761,84.858908 L186.238185,58.2198546 L190.67192,58.2198546 L177.663854,84.858908 Z M201.024818,84.5291261 L196.151374,84.5291261 L196.151374,66.5010459 L200.878248,66.5010459 L200.878248,68.7362347 C201.440102,67.807955 202.203478,67.1239696 203.168401,66.6842581 C204.133323,66.2445467 205.104338,66.0246942 206.081475,66.0246942 C207.205182,66.0246942 208.176197,66.2140116 208.994549,66.592652 C209.812901,66.9712925 210.490779,67.4781745 211.028204,68.1133133 C211.565629,68.748452 211.962585,69.5057216 212.219083,70.3851445 C212.475582,71.2645674 212.603829,72.1928333 212.603829,73.1699699 L212.603829,84.5291261 L207.730385,84.5291261 L207.730385,74.012746 C207.730385,72.9867526 207.467783,72.1317709 206.942572,71.4477752 C206.417361,70.7637796 205.568486,70.4217869 204.395923,70.4217869 C203.321072,70.4217869 202.490519,70.7821007 201.904237,71.5027389 C201.317955,72.2233771 201.024818,73.1088939 201.024818,74.1593157 L201.024818,84.5291261 Z M217.564652,84.5291261 L217.564652,58 L222.364811,58 L222.364811,68.4797377 C222.780094,67.8445989 223.457972,67.2766467 224.398466,66.7758642 C225.33896,66.2750817 226.480972,66.0246942 227.824535,66.0246942 C229.143669,66.0246942 230.316215,66.2628677 231.342209,66.7392218 C232.368202,67.2155759 233.241505,67.8751332 233.962143,68.7179135 C234.682781,69.5606938 235.226305,70.5561368 235.592732,71.7042723 C235.959158,72.8524078 236.142368,74.0982383 236.142368,75.4418011 C236.142368,76.8097924 235.940837,78.0739439 235.537768,79.2342936 C235.134699,80.3946433 234.56064,81.4023003 233.815573,82.2572948 C233.070507,83.1122894 232.172776,83.7779537 231.122354,84.2543078 C230.071932,84.7306619 228.9116,84.9688354 227.641322,84.9688354 C226.395473,84.9688354 225.314532,84.7245549 224.398466,84.2359866 C223.482401,83.7474183 222.780094,83.112289 222.291526,82.3305797 L222.291526,84.5291261 L217.564652,84.5291261 Z M231.268924,75.4784436 C231.268924,73.8173113 230.835326,72.5531598 229.968117,71.6859511 C229.100908,70.8187424 228.044395,70.3851445 226.798546,70.3851445 C226.187836,70.3851445 225.60767,70.4950707 225.05803,70.7149265 C224.508391,70.9347822 224.032044,71.2584538 223.628975,71.6859511 C223.225906,72.1134484 222.902235,72.6447584 222.657951,73.2798972 C222.413666,73.915036 222.291526,74.6478775 222.291526,75.4784436 C222.291526,76.2845813 222.413666,77.0052087 222.657951,77.6403475 C222.902235,78.2754863 223.225906,78.8129033 223.628975,79.2526148 C224.032044,79.6923263 224.508391,80.028212 225.05803,80.2602819 C225.60767,80.4923518 226.187836,80.6083851 226.798546,80.6083851 C228.044395,80.6083851 229.100908,80.1686802 229.968117,79.2892573 C230.835326,78.4098343 231.268924,77.1395758 231.268924,75.4784436 Z M239.564208,81.5244461 C239.564208,80.5961663 239.881773,79.8144687 240.516912,79.1793299 C241.152051,78.5441911 241.921534,78.2266265 242.825385,78.2266265 C243.289525,78.2266265 243.723123,78.3121247 244.126192,78.4831236 C244.529261,78.6541225 244.883468,78.886189 245.188823,79.1793299 C245.494178,79.4724709 245.732351,79.8205706 245.90335,80.2236395 C246.074349,80.6267083 246.159847,81.0603062 246.159847,81.5244461 C246.159847,81.9641575 246.074349,82.3855414 245.90335,82.7886102 C245.732351,83.1916791 245.494178,83.5397788 245.188823,83.8329197 C244.883468,84.1260607 244.529261,84.3581272 244.126192,84.5291261 C243.723123,84.700125 243.289525,84.7856232 242.825385,84.7856232 C241.921534,84.7856232 241.152051,84.4680585 240.516912,83.8329197 C239.881773,83.1977809 239.564208,82.4282974 239.564208,81.5244461 Z M239.527566,69.5423684 C239.527566,68.6140886 239.845131,67.8323911 240.480269,67.1972523 C241.115408,66.5621135 241.884892,66.2445489 242.788743,66.2445489 C243.252883,66.2445489 243.686481,66.330047 244.08955,66.5010459 C244.492618,66.6720448 244.846825,66.9041113 245.15218,67.1972523 C245.457536,67.4903933 245.695709,67.8384929 245.866708,68.2415618 C246.037707,68.6446306 246.123205,69.0782285 246.123205,69.5423684 C246.123205,69.9820799 246.037707,70.4034637 245.866708,70.8065325 C245.695709,71.2096014 245.457536,71.5577011 245.15218,71.8508421 C244.846825,72.1439831 244.492618,72.3760495 244.08955,72.5470484 C243.686481,72.7180473 243.252883,72.8035455 242.788743,72.8035455 C241.884892,72.8035455 241.115408,72.4859809 240.480269,71.8508421 C239.845131,71.2157033 239.527566,70.4462197 239.527566,69.5423684 Z M266.510495,66.5010459 L270.394593,78.1166992 L273.729055,66.5010459 L278.565857,66.5010459 L272.922921,84.5291261 L268.049477,84.5291261 L263.835596,72.2172665 L259.695001,84.5291261 L254.748271,84.5291261 L248.995409,66.5010459 L254.12535,66.5010459 L257.459812,78.0800568 L261.380553,66.5010459 L266.510495,66.5010459 Z M292.760574,73.4631094 C292.736146,73.0233979 292.644541,72.5898001 292.485756,72.1623028 C292.326971,71.7348055 292.082691,71.3561708 291.752907,71.0263872 C291.423124,70.6966036 291.007847,70.427895 290.507064,70.2202535 C290.006282,70.012612 289.413902,69.9087928 288.729906,69.9087928 C288.094767,69.9087928 287.532922,70.018719 287.044354,70.2385747 C286.555785,70.4584305 286.140509,70.739353 285.798511,71.0813508 C285.456513,71.4233487 285.193912,71.8019834 285.010698,72.2172665 C284.827485,72.6325495 284.723666,73.0478263 284.699238,73.4631094 L292.760574,73.4631094 Z M297.304237,79.3625421 C297.084381,80.1442514 296.736281,80.8831999 296.259927,81.5794097 C295.783573,82.2756195 295.203407,82.8802137 294.519411,83.3932105 C293.835416,83.9062072 293.035397,84.315377 292.119332,84.6207322 C291.203266,84.9260874 290.195609,85.0787627 289.09633,85.0787627 C287.850481,85.0787627 286.665721,84.8650172 285.542014,84.43752 C284.418307,84.0100227 283.428971,83.3810005 282.573976,82.5504344 C281.718982,81.7198682 281.041103,80.7061042 280.540321,79.5091119 C280.039538,78.3121196 279.789151,76.9563629 279.789151,75.4418011 C279.789151,74.0005246 280.033431,72.693624 280.522,71.5210601 C281.010568,70.3484962 281.664018,69.3530532 282.48237,68.5347013 C283.300722,67.7163494 284.247309,67.0812201 285.322159,66.6292945 C286.397009,66.1773688 287.508486,65.9514093 288.656621,65.9514093 C291.465889,65.9514093 293.652199,66.781963 295.215618,68.4430952 C296.779036,70.1042274 297.560734,72.38825 297.560734,75.2952314 C297.560734,75.6372292 297.54852,75.9609008 297.524091,76.266256 C297.499663,76.5716112 297.487449,76.7487146 297.487449,76.7975714 L284.58931,76.7975714 C284.613739,77.3838533 284.7542,77.9273774 285.010698,78.4281599 C285.267197,78.9289424 285.596975,79.3625403 286.000044,79.7289665 C286.403113,80.0953928 286.873353,80.3824223 287.410778,80.5900639 C287.948203,80.7977054 288.522262,80.9015246 289.132973,80.9015246 C290.281108,80.9015246 291.178839,80.6450301 291.826192,80.1320334 C292.473545,79.6190366 292.943785,78.9594793 293.236926,78.1533416 L297.304237,79.3625421 Z M301.422283,84.5291261 L301.422283,58 L306.222443,58 L306.222443,68.4797377 C306.637726,67.8445989 307.315604,67.2766467 308.256098,66.7758642 C309.196592,66.2750817 310.338603,66.0246942 311.682166,66.0246942 C313.001301,66.0246942 314.173847,66.2628677 315.19984,66.7392218 C316.225834,67.2155759 317.099137,67.8751332 317.819775,68.7179135 C318.540413,69.5606938 319.083937,70.5561368 319.450363,71.7042723 C319.81679,72.8524078 320,74.0982383 320,75.4418011 C320,76.8097924 319.798469,78.0739439 319.3954,79.2342936 C318.992331,80.3946433 318.418272,81.4023003 317.673205,82.2572948 C316.928138,83.1122894 316.030408,83.7779537 314.979986,84.2543078 C313.929564,84.7306619 312.769232,84.9688354 311.498954,84.9688354 C310.253105,84.9688354 309.172164,84.7245549 308.256098,84.2359866 C307.340033,83.7474183 306.637726,83.112289 306.149158,82.3305797 L306.149158,84.5291261 L301.422283,84.5291261 Z M315.126556,75.4784436 C315.126556,73.8173113 314.692958,72.5531598 313.825749,71.6859511 C312.95854,70.8187424 311.902027,70.3851445 310.656178,70.3851445 C310.045468,70.3851445 309.465301,70.4950707 308.915662,70.7149265 C308.366023,70.9347822 307.889676,71.2584538 307.486607,71.6859511 C307.083538,72.1134484 306.759866,72.6447584 306.515582,73.2798972 C306.271298,73.915036 306.149158,74.6478775 306.149158,75.4784436 C306.149158,76.2845813 306.271298,77.0052087 306.515582,77.6403475 C306.759866,78.2754863 307.083538,78.8129033 307.486607,79.2526148 C307.889676,79.6923263 308.366023,80.028212 308.915662,80.2602819 C309.465301,80.4923518 310.045468,80.6083851 310.656178,80.6083851 C311.902027,80.6083851 312.95854,80.1686802 313.825749,79.2892573 C314.692958,78.4098343 315.126556,77.1395758 315.126556,75.4784436 Z" id="//-nb:web-copy"></path>
        </g>
    </g>
</svg>
