<?xml version="1.0" encoding="UTF-8"?>
<svg width="12px" height="20px" viewBox="0 0 12 20" version="1.1" xmlns="http://www.w3.org/2000/svg" xmlns:xlink="http://www.w3.org/1999/xlink">
    <g id="Web" stroke="none" stroke-width="1" fill="none" fill-rule="evenodd">
        <g id="WebHD" transform="translate(-897.000000, -62.000000)" fill="#FFFFFF" fill-rule="nonzero">
            <g id="noun_1641403_cc" transform="translate(897.000000, 62.000000)">
                <g id="Group">
                    <g id="Shape">
                        <path d="M9.30350168,20 L2.27544569,20 C1.05947852,20 0.0700665263,19.0030925 0.0700665263,17.7775065 L0.0700665263,2.22208658 C0.0700665263,0.996907542 1.05947852,0 2.27544569,0 L9.30350168,0 C10.5194688,0 11.5088808,0.996907542 11.5088808,2.22208658 L11.5088808,17.7775065 C11.5088808,19.0030925 10.5194688,20 9.30350168,20 Z M2.27544569,0.833333333 C1.51541574,0.833333333 0.897134195,1.45629883 0.897134195,2.22208658 L0.897134195,17.7775065 C0.897134195,18.5432943 1.51541574,19.1666667 2.27544569,19.1666667 L9.30350168,19.1666667 C10.0635316,19.1666667 10.6818132,18.5432943 10.6818132,17.7775065 L10.6818132,2.22208658 C10.6818132,1.45629883 10.0635316,0.833333333 9.30350168,0.833333333 L2.27544569,0.833333333 Z"></path>
                        <path d="M8.14770691,3.52579754 L3.43124046,3.52579754 C3.20266609,3.52579754 3.01770663,3.33943688 3.01770663,3.10913088 C3.01770663,2.87882488 3.20266609,2.69246421 3.43124046,2.69246421 L8.14770691,2.69246421 C8.37628128,2.69246421 8.56124074,2.87882488 8.56124074,3.10913088 C8.56124074,3.33943688 8.37628128,3.52579754 8.14770691,3.52579754 Z"></path>
                    </g>
                    <path d="M5.79007943,17.6904297 C5.6782153,17.6904297 5.57483184,17.6444499 5.49648658,17.5655111 C5.41773745,17.4861654 5.37654559,17.3819987 5.37654559,17.273763 C5.37654559,17.2151693 5.38462245,17.1655274 5.40521833,17.1110026 C5.43025653,17.0613607 5.45933312,17.0153809 5.49648653,16.977946 C5.53363994,16.9405111 5.57927406,16.9071452 5.632985,16.8863933 C5.73192619,16.8444825 5.84379032,16.8444825 5.94717378,16.8863933 C5.9968463,16.9071452 6.04207657,16.9405111 6.08367224,16.977946 C6.12082569,17.0153809 6.14990229,17.0613607 6.17049818,17.1110026 C6.19109411,17.1655274 6.20361318,17.2196452 6.20361318,17.273763 C6.20361318,17.3819987 6.15797906,17.4861654 6.0836722,17.5655111 C6.04207653,17.607015 5.99684626,17.6363119 5.94717374,17.6570638 C5.89750121,17.6778158 5.8437904,17.6904297 5.79007943,17.6904297 Z" id="Shape"></path>
                </g>
            </g>
        </g>
    </g>
</svg>
